<svg xmlns="http://www.w3.org/2000/svg" width="256" height="256"><path fill-opacity=".016" d="M0 128.004v128.004l128.25-.254 128.25-.254.254-127.75L257.008 0H0v128.004m.485.496c0 70.4.119 99.053.265 63.672.146-35.38.146-92.98 0-128C.604 29.153.485 58.1.485 128.5" fill="#1976D2" fill-rule="evenodd"/><path fill-opacity=".111" d="M245 14.213c0 1.217-1.853 5.953-4.117 10.524-8.347 16.848-24.263 30.185-56.383 47.244-23.293 12.371-25.088 13.551-33.5 22.003-7.131 7.166-9.406 10.312-14.121 19.529-4.93 9.634-8.922 20.109-11.43 29.987-.419 1.65-.904 3.45-1.077 4-.523 1.661-3.08 19.328-4.389 30.327-.883 7.427-.923 10.633-.143 11.413.781.781 1.346.408 2.013-1.327 9.165-23.834 17.942-40.455 28.803-54.544 10.559-13.7 19.477-20.976 37.882-30.91 19.64-10.601 23.8-13.957 36.506-29.459 1.127-1.375.34.393-1.748 3.929-4.582 7.76-18.413 21.926-27.314 27.977-3.565 2.424-9.182 6.238-12.482 8.475-7.709 5.227-20.989 18.513-25.765 25.777-8.103 12.324-17.023 31.476-22.283 47.842-.972 3.025-1.99 6.175-2.261 7-.691 2.103-.678 2.054-4.592 16.456-3.551 13.065-3.748 16.132-.743 11.544 7.539-11.508 18.257-17.545 42.644-24.02 8.8-2.336 16.45-4.579 17-4.984.55-.404 2.679-1.276 4.731-1.937 6.317-2.034 18.895-10.931 26.769-18.935 18.485-18.79 31.312-45.757 35.971-75.624.582-3.732.862-.69 1.105 12 .182 9.489.478 13.514.67 9.109.189-4.34-.114-23.24-.673-42-.908-30.437-1.288-35.335-3.529-45.494-1.382-6.262-3.06-12.9-3.729-14.75-1.37-3.789-3.815-4.527-3.815-1.152M1.274 113c.174 12.375.654 23.85 1.068 25.5.414 1.65 1.197 4.8 1.741 7 3.198 12.937 13.105 33.483 20.009 41.5 16.304 18.929 26.803 25.602 54.922 34.907 18.157 6.009 24.539 9.407 31.736 16.898 2.905 3.023 5.435 5.316 5.622 5.096.559-.657-1.114-24.773-2.316-33.401-2.514-18.046-7.701-33.872-15.208-46.406-4.369-7.294-16.939-20.58-24.793-26.205-5.319-3.81-25.395-13.903-40.32-20.271-5.92-2.526-12.62-5.539-14.888-6.696C13.396 108.141 5.983 100.599 3.198 95L.96 90.5l.314 22.5" fill="#1976D2" fill-rule="evenodd"/><path fill-opacity=".462" d="M244.109 18.173c-4.47 13.432-16.585 27.695-32.306 38.033-8.492 5.585-28.813 17.134-43.542 24.747-22.834 11.802-38.073 37.296-45.158 75.547-2.403 12.976-3.894 33.524-2.322 32 .567-.55 2.529-4.825 4.36-9.5 4.243-10.838 13.874-29.747 19.101-37.5 12.096-17.945 24.833-29.216 45.258-40.049 4.95-2.626 10.194-5.602 11.654-6.613 1.46-1.011 2.918-1.838 3.239-1.838 2.284 0 15.258-12.815 19.792-19.55 2.346-3.483 4.409-6.189 4.585-6.013.542.541-5.71 10.691-10.963 17.801-5.37 7.267-14.104 14.764-28.267 24.262-25.848 17.334-40.447 38.468-53.538 77.5-5.811 17.325-10.538 34.798-9.653 35.682.252.252 1.837-1.545 3.522-3.994 6.183-8.988 17.642-15.107 37.629-20.095 6.05-1.51 11.9-3.108 13-3.551 1.1-.443 5.242-2.015 9.203-3.494 8.045-3.002 17.172-8.556 25.028-15.227 10.599-9.002 25.161-31.387 32.085-49.321 10.735-27.808 12.269-69.434 3.808-103.369-1.354-5.427-2.898-10.305-3.431-10.838-.628-.628-1.718 1.275-3.084 5.38M.363 110.75c.621 25.305 3.789 39.627 12.851 58.101 9.017 18.38 22.972 33.252 39.962 42.584 3.672 2.017 14.697 6.366 24.5 9.665 20.171 6.787 26.435 10.109 33.431 17.731l4.893 5.33v-6.407c0-9.768-1.88-27.208-4.032-37.4-4.588-21.736-11.736-36.637-23.679-49.365-9.049-9.644-18.893-16.482-33.985-23.607-13.199-6.231-12.387-5.865-24.949-11.233-14.112-6.031-23.036-13.137-26.254-20.906-2.658-6.415-3.2-3.339-2.738 15.507" fill="#1976D2" fill-rule="evenodd"/><path fill-opacity=".258" d="M246 13.704c0 .937-2.068 5.954-4.594 11.148-3.825 7.862-6.046 10.903-13.25 18.144-11.494 11.551-20.717 17.552-54.656 35.563-11.956 6.345-15.913 9.155-22.682 16.106-12.53 12.868-22.432 34.94-27.294 60.835-1.574 8.382-3.992 33.5-3.225 33.5.258 0 1.49-2.587 2.737-5.75 2.16-5.472 3.865-9.432 8.938-20.75 7.129-15.903 22.411-36.755 34.017-46.413 5.879-4.892 8.698-6.644 30.009-18.652 12.859-7.245 24.328-17.771 30.28-27.79 5.439-9.155 5.974-7.053.626 2.456-8.663 15.401-16.508 23.252-38.906 38.932-21.376 14.965-34.236 31.461-44.976 57.697-4.242 10.362-11.818 33.642-15.056 46.27a625.363 625.363 0 01-1.572 6c-.497 1.844.385 1.165 3.36-2.588 7.261-9.158 17.82-15.129 34.244-19.363 16.072-4.144 19.457-5.181 26.587-8.15 24-9.991 40.748-28.65 54.662-60.899 2.729-6.325 5.683-16.329 7.974-27 1.939-9.037 2.255-13.496 2.265-32 .01-18.299-.335-23.361-2.316-34C250.24 21.26 246 7.488 246 13.704M.441 95.411c-1.312 5.17.342 32.426 2.585 42.589 5.024 22.764 14.72 42.369 27.863 56.338 9.28 9.863 28.712 21.565 40.111 24.155.825.187 6 1.885 11.5 3.772 16.597 5.696 24.921 10.611 30.384 17.941l2.762 3.707-.412-11.207c-.914-24.838-5.62-46.795-13.273-61.915-10.619-20.983-25.492-33.507-55.461-46.704-32.156-14.159-38.396-18.159-43.366-27.799L1.18 92.5l-.739 2.911" fill="#1976D2" fill-rule="evenodd"/></svg>