<svg xmlns="http://www.w3.org/2000/svg" width="256" height="256"><path fill-opacity=".016" d="M0 128.004v128.004l128.25-.254 128.25-.254.254-127.75L257.008 0H0v128.004m.485.496c0 70.4.119 99.053.265 63.672.146-35.38.146-92.98 0-128C.604 29.153.485 58.1.485 128.5" fill="#1976D2" fill-rule="evenodd"/><path fill-opacity=".103" d="M.132 56.258c.072 24.333.41 42.684.75 40.78l.618-3.462 1.228 2.71c3.732 8.239 13.094 14.869 32.772 23.208 13.855 5.871 31.29 14.595 37.35 18.689 2.558 1.728 8.717 7.231 13.687 12.229 7.206 7.247 9.97 10.911 13.643 18.088 8.681 16.965 13.237 35.89 14.448 60.027l.671 13.376-5.568-5.394c-7.008-6.787-12.197-9.406-31.898-16.096-24.341-8.266-34.924-14.341-46.449-26.662C13.644 174.787 3.434 149.432.681 117.5c-.19-2.2-.42 25.364-.513 61.254L0 244.008l128.25-.254 128.25-.254.205-116 .205-116-128.455.258L0 12.015l.132 44.243M.46 56c0 24.475.13 34.488.289 22.25.159-12.237.159-32.262 0-44.5C.59 21.513.46 31.525.46 56m244.158-36.724c-4.741 13.516-16.431 26.863-33.3 38.018-8.516 5.632-27.902 16.614-43.639 24.722-14.545 7.493-27.402 23.223-35.249 43.123-5.772 14.639-11.466 42.422-11.403 55.641l.028 5.72 4.746-11c17.202-39.87 34.257-59.977 63.199-74.508 10.926-5.485 22.593-13.727 28.194-19.917 4.502-4.975 11.818-15.835 13.152-19.523.209-.579.756-.7 1.216-.27 1.106 1.035-4.679 12.687-10.041 20.222-4.805 6.755-16.8 18.467-23.55 22.996-30.131 20.217-41.214 33.099-53.844 62.585C138.531 180.15 127 216.123 127 220.516c0 .305 1.463-1.137 3.25-3.203s4.375-4.79 5.75-6.053c3.536-3.248 17.394-9.787 24.5-11.56 31.224-7.792 42.89-13.376 56.664-27.122 27.073-27.018 41.78-71.823 37.89-115.427-1.588-17.802-5.723-39.765-7.977-42.375-.344-.399-1.451 1.626-2.459 4.5M.472 179c0 36.025.125 50.762.278 32.75.152-18.012.152-47.488 0-65.5C.597 128.238.472 142.975.472 179" fill="#1976D2" fill-rule="evenodd"/><path fill-opacity=".276" d="M.1 54.758c.055 23.508.392 41.719.75 40.468.62-2.168.717-2.122 2.088.985 3.595 8.15 13.511 15.024 33.726 23.38C48.749 124.587 64.18 132.393 72 137.467c27.669 17.952 40.903 46.854 43.42 94.82l.566 10.788-5.299-5.427C104.089 230.89 95.97 226.757 77 220.501c-15.743-5.192-23.398-8.671-32.156-14.611-23.321-15.82-40.143-47.026-43.709-81.086-.58-5.544-.913 12.884-1.002 55.45L0 244.008l128.25-.254 128.25-.254.185-116 .186-116-128.436.258L0 12.015l.1 42.743m.358-.258C.459 78.15.59 87.682.749 75.682c.16-11.999.16-31.349 0-43C.589 21.032.458 30.85.458 54.5m244.606-37.282c-2.461 8.285-8.278 17.132-16.996 25.85-10.397 10.398-19.209 16.285-46.524 31.081-16.688 9.039-22.342 12.651-27.76 17.732-6.865 6.437-13.422 15.384-18.08 24.667-6.648 13.25-12.663 36.996-14.66 57.876-1.601 16.752-1.268 17.238 3.492 5.076 4.343-11.098 14.012-29.917 20.214-39.343 3.172-4.821 9.935-12.866 15.262-18.157 9.665-9.599 12.749-11.701 35.988-24.533 12.852-7.095 25.534-19.098 31.456-29.769 4.698-8.466 5.89-8.093 1.533.48-8.49 16.707-17.054 25.919-37.489 40.325C165.403 126.9 153.316 142.4 141.205 173c-5.489 13.871-15.816 48.723-14.751 49.787.219.22 1.072-.904 1.895-2.496 2.452-4.741 10.299-11.224 17.965-14.842 3.952-1.865 13.036-4.953 20.186-6.861 15.669-4.181 22.28-6.437 29.522-10.075 27.519-13.824 48.6-45.631 57.073-86.113 3.265-15.597 3.294-47.427.059-64.526-2.569-13.585-4.936-23.052-6.038-24.156-.429-.43-1.353 1.145-2.052 3.5M.471 180.5c0 35.2.126 49.455.279 31.678.153-17.778.153-46.578-.001-64C.596 130.755.471 145.3.471 180.5" fill="#1976D2" fill-rule="evenodd"/><path fill-opacity=".46" d="M0 51.548v39.548l3.492 5.459c1.921 3.002 4.958 6.795 6.75 8.429 3.916 3.57 14.664 9.287 28.258 15.033 24.823 10.492 38.261 18.788 49.361 30.473 11.325 11.923 17.896 24.557 22.742 43.727 2.835 11.214 5.371 31.245 5.387 42.54l.01 7.257 70.25-.257 70.25-.257.146-116 .145-116-4.395.351c-2.418.193-4.396.643-4.395 1 .001.357 1.111 5.149 2.468 10.649 7.098 28.765 7.489 60.496 1.081 87.726-5.139 21.841-18.389 46.282-33.198 61.237-12.418 12.541-24.521 19.108-45.852 24.879-28.36 7.673-33.957 10.654-44.422 23.658-1.783 2.217-2.015 2.283-2.045.588-.036-2.072.654-4.568 7.399-26.764 6.739-22.177 14.097-38.993 23.332-53.324 6.908-10.72 18.148-21.563 34.334-33.121 20.56-14.682 27.2-21.643 36.726-38.501 4.9-8.672 3.781-7.913-2.768 1.878-8.907 13.315-15.93 19.106-37.169 30.647-29.393 15.97-45.586 35.507-61.831 74.597-2.4 5.775-4.798 10.95-5.329 11.5-1.303 1.351-.044-18.362 1.916-30 4.808-28.546 14.852-50.896 29.413-65.448 6.351-6.349 9.777-8.732 21.5-14.96 41.144-21.856 55.658-32.574 64.868-47.899C241.772 24.621 246 14.895 246 12.764c0-.42-55.35-.764-123-.764H0v39.548M.456 52c0 22.275.132 31.388.293 20.25.161-11.137.161-29.362 0-40.5C.588 20.613.456 29.725.456 52m.661 135.25L1 244h57.035c64.36 0 59.779.692 50.717-7.661-6.729-6.202-11.836-8.713-30.252-14.874-9.35-3.127-19.25-6.818-22-8.201C29.007 199.436 9.591 171.994 2.543 137c-1.145-5.683-1.324.63-1.426 50.25" fill="#1976D2" fill-rule="evenodd"/></svg>